<svg width="300" height="141" viewBox="0 0 300 141" fill="none" xmlns="http://www.w3.org/2000/svg">
<g clip-path="url(#clip0_2_194)">
<g filter="url(#filter0_d_2_194)">
<rect width="300" height="141" rx="15" fill="white"/>
</g>
<path d="M102.304 71.072C102.304 71.6053 102.176 72.1013 101.92 72.56C101.664 73.0187 101.275 73.392 100.752 73.68C100.229 73.968 99.584 74.112 98.816 74.112C98.0693 74.112 97.4027 73.9787 96.816 73.712C96.24 73.4347 95.776 73.0613 95.424 72.592C95.0827 72.112 94.8853 71.568 94.832 70.96H96.384C96.416 71.28 96.5227 71.5947 96.704 71.904C96.896 72.2027 97.1627 72.4533 97.504 72.656C97.856 72.848 98.2773 72.944 98.768 72.944C99.408 72.944 99.8987 72.7733 100.24 72.432C100.581 72.0907 100.752 71.6533 100.752 71.12C100.752 70.6613 100.629 70.288 100.384 70C100.149 69.712 99.856 69.488 99.504 69.328C99.152 69.1573 98.672 68.976 98.064 68.784C97.3493 68.5493 96.7733 68.3307 96.336 68.128C95.9093 67.9147 95.5413 67.6 95.232 67.184C94.9333 66.768 94.784 66.2187 94.784 65.536C94.784 64.9493 94.9227 64.432 95.2 63.984C95.488 63.536 95.8933 63.1893 96.416 62.944C96.9493 62.6987 97.5733 62.576 98.288 62.576C99.3973 62.576 100.277 62.848 100.928 63.392C101.579 63.9253 101.957 64.608 102.064 65.44H100.496C100.411 64.992 100.181 64.5973 99.808 64.256C99.4347 63.9147 98.928 63.744 98.288 63.744C97.7013 63.744 97.232 63.8987 96.88 64.208C96.528 64.5067 96.352 64.9333 96.352 65.488C96.352 65.9253 96.464 66.2827 96.688 66.56C96.9227 66.8267 97.2107 67.04 97.552 67.2C97.8933 67.3493 98.3627 67.52 98.96 67.712C99.6853 67.9467 100.267 68.1707 100.704 68.384C101.152 68.5973 101.531 68.9227 101.84 69.36C102.149 69.7867 102.304 70.3573 102.304 71.072ZM110.26 65.104C111.038 65.104 111.732 65.2853 112.34 65.648C112.948 66.0107 113.422 66.5333 113.764 67.216C114.116 67.8987 114.292 68.6987 114.292 69.616C114.292 70.5333 114.116 71.3333 113.764 72.016C113.422 72.688 112.948 73.2053 112.34 73.568C111.732 73.9307 111.038 74.112 110.26 74.112C109.406 74.112 108.681 73.8987 108.084 73.472C107.497 73.0347 107.092 72.464 106.868 71.76V78.16H105.412V65.216H106.868V67.456C107.092 66.752 107.497 66.1867 108.084 65.76C108.681 65.3227 109.406 65.104 110.26 65.104ZM109.844 66.4C109.278 66.4 108.766 66.5333 108.308 66.8C107.849 67.056 107.492 67.4293 107.236 67.92C106.98 68.4107 106.852 68.976 106.852 69.616C106.852 70.256 106.98 70.8213 107.236 71.312C107.492 71.792 107.849 72.1653 108.308 72.432C108.766 72.6987 109.278 72.832 109.844 72.832C110.75 72.832 111.47 72.5493 112.004 71.984C112.548 71.408 112.82 70.6187 112.82 69.616C112.82 68.6133 112.548 67.8293 112.004 67.264C111.47 66.688 110.75 66.4 109.844 66.4ZM120.943 65.104C121.796 65.104 122.516 65.3173 123.103 65.744C123.7 66.1707 124.116 66.7413 124.351 67.456V65.216H125.807V74H124.351V71.76C124.116 72.4747 123.7 73.0453 123.103 73.472C122.516 73.8987 121.796 74.112 120.943 74.112C120.164 74.112 119.471 73.9307 118.863 73.568C118.255 73.2053 117.775 72.688 117.423 72.016C117.082 71.3333 116.911 70.5333 116.911 69.616C116.911 68.6987 117.082 67.8987 117.423 67.216C117.775 66.5333 118.255 66.0107 118.863 65.648C119.471 65.2853 120.164 65.104 120.943 65.104ZM121.359 66.4C120.463 66.4 119.743 66.688 119.199 67.264C118.666 67.8293 118.399 68.6133 118.399 69.616C118.399 70.6187 118.666 71.408 119.199 71.984C119.743 72.5493 120.463 72.832 121.359 72.832C121.935 72.832 122.447 72.6987 122.895 72.432C123.354 72.1653 123.711 71.792 123.967 71.312C124.223 70.8213 124.351 70.256 124.351 69.616C124.351 68.976 124.223 68.4107 123.967 67.92C123.711 67.4293 123.354 67.056 122.895 66.8C122.447 66.5333 121.935 66.4 121.359 66.4ZM133.162 65.104C134.282 65.104 135.21 65.4027 135.946 66C136.682 66.5973 137.136 67.3973 137.306 68.4H135.77C135.664 67.7707 135.37 67.28 134.89 66.928C134.421 66.5653 133.834 66.384 133.13 66.384C132.618 66.384 132.149 66.5013 131.722 66.736C131.306 66.9707 130.97 67.3333 130.714 67.824C130.458 68.304 130.33 68.9013 130.33 69.616C130.33 70.3307 130.458 70.9333 130.714 71.424C130.97 71.904 131.306 72.2613 131.722 72.496C132.149 72.7307 132.618 72.848 133.13 72.848C133.834 72.848 134.421 72.6667 134.89 72.304C135.37 71.9413 135.664 71.4453 135.77 70.816H137.306C137.136 71.8293 136.682 72.6347 135.946 73.232C135.21 73.8187 134.282 74.112 133.162 74.112C132.32 74.112 131.573 73.9307 130.922 73.568C130.272 73.2053 129.76 72.688 129.386 72.016C129.024 71.3333 128.842 70.5333 128.842 69.616C128.842 68.6987 129.024 67.8987 129.386 67.216C129.76 66.5333 130.272 66.0107 130.922 65.648C131.573 65.2853 132.32 65.104 133.162 65.104ZM148.442 69.12C148.442 69.4293 148.42 69.696 148.378 69.92H141.354C141.386 70.9227 141.668 71.6747 142.202 72.176C142.746 72.6773 143.407 72.928 144.186 72.928C144.89 72.928 145.476 72.752 145.946 72.4C146.426 72.0373 146.719 71.5573 146.826 70.96H148.378C148.271 71.568 148.031 72.112 147.658 72.592C147.295 73.072 146.82 73.4453 146.234 73.712C145.647 73.9787 144.986 74.112 144.25 74.112C143.407 74.112 142.66 73.9307 142.01 73.568C141.359 73.2053 140.847 72.688 140.474 72.016C140.111 71.3333 139.93 70.5333 139.93 69.616C139.93 68.6987 140.111 67.8987 140.474 67.216C140.847 66.5333 141.359 66.0107 142.01 65.648C142.66 65.2853 143.407 65.104 144.25 65.104C145.103 65.104 145.844 65.2853 146.474 65.648C147.114 66.0107 147.599 66.496 147.93 67.104C148.271 67.712 148.442 68.384 148.442 69.12ZM146.97 69.216C147.002 68.5653 146.895 68.0213 146.65 67.584C146.404 67.1467 146.068 66.8213 145.642 66.608C145.215 66.3947 144.751 66.288 144.25 66.288C143.45 66.288 142.778 66.5387 142.234 67.04C141.69 67.5307 141.396 68.256 141.354 69.216H146.97ZM160.487 63.136C159.709 63.1253 159.165 63.2587 158.855 63.536C158.557 63.8133 158.407 64.2933 158.407 64.976V65.216H160.487V66.496H158.407V74H156.951V66.496H155.687V65.216H156.951V64.864C156.951 62.7627 158.13 61.76 160.487 61.856V63.136ZM167.202 65.104C168.045 65.104 168.797 65.2853 169.458 65.648C170.13 66.0107 170.653 66.5333 171.026 67.216C171.41 67.8987 171.602 68.6987 171.602 69.616C171.602 70.5333 171.41 71.3333 171.026 72.016C170.653 72.688 170.13 73.2053 169.458 73.568C168.797 73.9307 168.045 74.112 167.202 74.112C166.359 74.112 165.602 73.9307 164.93 73.568C164.269 73.2053 163.746 72.688 163.362 72.016C162.978 71.3333 162.786 70.5333 162.786 69.616C162.786 68.6987 162.978 67.8987 163.362 67.216C163.746 66.5333 164.269 66.0107 164.93 65.648C165.602 65.2853 166.359 65.104 167.202 65.104ZM167.202 66.384C166.679 66.384 166.194 66.5013 165.746 66.736C165.309 66.9707 164.951 67.3333 164.674 67.824C164.407 68.304 164.274 68.9013 164.274 69.616C164.274 70.32 164.407 70.9173 164.674 71.408C164.951 71.888 165.309 72.2453 165.746 72.48C166.194 72.7147 166.679 72.832 167.202 72.832C167.725 72.832 168.205 72.7147 168.642 72.48C169.09 72.2453 169.447 71.888 169.714 71.408C169.991 70.9173 170.13 70.32 170.13 69.616C170.13 68.9013 169.991 68.304 169.714 67.824C169.447 67.3333 169.09 66.9707 168.642 66.736C168.205 66.5013 167.725 66.384 167.202 66.384ZM176.105 66.992C176.393 66.384 176.815 65.9147 177.369 65.584C177.924 65.2427 178.585 65.072 179.353 65.072V66.656H178.905C178.084 66.656 177.412 66.8693 176.889 67.296C176.367 67.712 176.105 68.4053 176.105 69.376V74H174.649V65.216H176.105V66.992ZM194.851 65.216V74H193.395V71.936C193.171 72.6507 192.771 73.2 192.195 73.584C191.63 73.9573 190.968 74.144 190.211 74.144C189.198 74.144 188.376 73.8187 187.747 73.168C187.118 72.5067 186.803 71.5627 186.803 70.336V65.216H188.259V70.192C188.259 71.0667 188.483 71.744 188.931 72.224C189.379 72.6933 189.987 72.928 190.755 72.928C191.555 72.928 192.195 72.672 192.675 72.16C193.155 71.6373 193.395 70.88 193.395 69.888V65.216H194.851ZM203.182 65.104C203.96 65.104 204.654 65.2853 205.262 65.648C205.87 66.0107 206.344 66.5333 206.686 67.216C207.038 67.8987 207.214 68.6987 207.214 69.616C207.214 70.5333 207.038 71.3333 206.686 72.016C206.344 72.688 205.87 73.2053 205.262 73.568C204.654 73.9307 203.96 74.112 203.182 74.112C202.328 74.112 201.603 73.8987 201.006 73.472C200.419 73.0347 200.014 72.464 199.79 71.76V78.16H198.334V65.216H199.79V67.456C200.014 66.752 200.419 66.1867 201.006 65.76C201.603 65.3227 202.328 65.104 203.182 65.104ZM202.766 66.4C202.2 66.4 201.688 66.5333 201.23 66.8C200.771 67.056 200.414 67.4293 200.158 67.92C199.902 68.4107 199.774 68.976 199.774 69.616C199.774 70.256 199.902 70.8213 200.158 71.312C200.414 71.792 200.771 72.1653 201.23 72.432C201.688 72.6987 202.2 72.832 202.766 72.832C203.672 72.832 204.392 72.5493 204.926 71.984C205.47 71.408 205.742 70.6187 205.742 69.616C205.742 68.6133 205.47 67.8293 204.926 67.264C204.392 66.688 203.672 66.4 202.766 66.4ZM219.56 72.72V74H218.472C217.576 74 216.904 73.7867 216.456 73.36C216.019 72.9333 215.8 72.2187 215.8 71.216V66.48H214.488V65.216H215.8V63.024H217.272V65.216H219.544V66.48H217.272V71.248C217.272 71.8133 217.373 72.2027 217.576 72.416C217.789 72.6187 218.152 72.72 218.664 72.72H219.56ZM226.471 65.104C227.313 65.104 228.065 65.2853 228.727 65.648C229.399 66.0107 229.921 66.5333 230.295 67.216C230.679 67.8987 230.871 68.6987 230.871 69.616C230.871 70.5333 230.679 71.3333 230.295 72.016C229.921 72.688 229.399 73.2053 228.727 73.568C228.065 73.9307 227.313 74.112 226.471 74.112C225.628 74.112 224.871 73.9307 224.199 73.568C223.537 73.2053 223.015 72.688 222.631 72.016C222.247 71.3333 222.055 70.5333 222.055 69.616C222.055 68.6987 222.247 67.8987 222.631 67.216C223.015 66.5333 223.537 66.0107 224.199 65.648C224.871 65.2853 225.628 65.104 226.471 65.104ZM226.471 66.384C225.948 66.384 225.463 66.5013 225.015 66.736C224.577 66.9707 224.22 67.3333 223.943 67.824C223.676 68.304 223.543 68.9013 223.543 69.616C223.543 70.32 223.676 70.9173 223.943 71.408C224.22 71.888 224.577 72.2453 225.015 72.48C225.463 72.7147 225.948 72.832 226.471 72.832C226.993 72.832 227.473 72.7147 227.911 72.48C228.359 72.2453 228.716 71.888 228.983 71.408C229.26 70.9173 229.399 70.32 229.399 69.616C229.399 68.9013 229.26 68.304 228.983 67.824C228.716 67.3333 228.359 66.9707 227.911 66.736C227.473 66.5013 226.993 66.384 226.471 66.384ZM238.061 64.08V62.72H241.293V74H239.757V64.08H238.061ZM252.109 63.872H246.317V67.648C246.584 67.2853 246.968 66.9973 247.469 66.784C247.97 66.5707 248.52 66.464 249.117 66.464C249.917 66.464 250.578 66.6347 251.101 66.976C251.634 67.3067 252.024 67.7493 252.269 68.304C252.525 68.848 252.653 69.456 252.653 70.128C252.653 71.2907 252.328 72.24 251.677 72.976C251.026 73.712 250.072 74.08 248.813 74.08C247.682 74.08 246.76 73.776 246.045 73.168C245.33 72.5493 244.93 71.7227 244.845 70.688H246.285C246.402 71.3493 246.674 71.8667 247.101 72.24C247.538 72.6027 248.088 72.784 248.749 72.784C249.57 72.784 250.189 72.5387 250.605 72.048C251.021 71.5573 251.229 70.912 251.229 70.112C251.229 69.3333 251.016 68.7253 250.589 68.288C250.162 67.8507 249.56 67.632 248.781 67.632C248.226 67.632 247.741 67.7547 247.325 68C246.909 68.2347 246.594 68.5547 246.381 68.96H244.973V62.576H252.109V63.872ZM255.518 68.288C255.518 70.1013 255.817 71.5147 256.414 72.528C257.012 73.5413 258.046 74.048 259.518 74.048C260.99 74.048 262.025 73.5413 262.622 72.528C263.23 71.5147 263.534 70.1013 263.534 68.288C263.534 66.496 263.23 65.0933 262.622 64.08C262.025 63.0667 260.99 62.56 259.518 62.56C258.046 62.56 257.012 63.0667 256.414 64.08C255.817 65.0827 255.518 66.4853 255.518 68.288ZM262.094 68.288C262.094 69.216 262.025 69.9947 261.886 70.624C261.758 71.2427 261.508 71.7387 261.134 72.112C260.761 72.4853 260.222 72.672 259.518 72.672C258.825 72.672 258.292 72.4853 257.918 72.112C257.545 71.7387 257.289 71.2427 257.15 70.624C257.022 69.9947 256.958 69.216 256.958 68.288C256.958 67.3707 257.022 66.6027 257.15 65.984C257.289 65.3653 257.545 64.8747 257.918 64.512C258.292 64.1387 258.825 63.952 259.518 63.952C260.222 63.952 260.761 64.1387 261.134 64.512C261.508 64.8747 261.758 65.3653 261.886 65.984C262.025 66.6027 262.094 67.3707 262.094 68.288ZM100.016 92.104C100.795 92.104 101.488 92.2853 102.096 92.648C102.704 93.0107 103.179 93.5333 103.52 94.216C103.872 94.8987 104.048 95.6987 104.048 96.616C104.048 97.5333 103.872 98.3333 103.52 99.016C103.179 99.688 102.704 100.205 102.096 100.568C101.488 100.931 100.795 101.112 100.016 101.112C99.1627 101.112 98.4373 100.899 97.84 100.472C97.2533 100.035 96.848 99.464 96.624 98.76V105.16H95.168V92.216H96.624V94.456C96.848 93.752 97.2533 93.1867 97.84 92.76C98.4373 92.3227 99.1627 92.104 100.016 92.104ZM99.6 93.4C99.0347 93.4 98.5227 93.5333 98.064 93.8C97.6053 94.056 97.248 94.4293 96.992 94.92C96.736 95.4107 96.608 95.976 96.608 96.616C96.608 97.256 96.736 97.8213 96.992 98.312C97.248 98.792 97.6053 99.1653 98.064 99.432C98.5227 99.6987 99.0347 99.832 99.6 99.832C100.507 99.832 101.227 99.5493 101.76 98.984C102.304 98.408 102.576 97.6187 102.576 96.616C102.576 95.6133 102.304 94.8293 101.76 94.264C101.227 93.688 100.507 93.4 99.6 93.4ZM115.179 96.12C115.179 96.4293 115.158 96.696 115.115 96.92H108.091C108.123 97.9227 108.406 98.6747 108.939 99.176C109.483 99.6773 110.145 99.928 110.923 99.928C111.627 99.928 112.214 99.752 112.683 99.4C113.163 99.0373 113.457 98.5573 113.563 97.96H115.115C115.009 98.568 114.769 99.112 114.395 99.592C114.033 100.072 113.558 100.445 112.971 100.712C112.385 100.979 111.723 101.112 110.987 101.112C110.145 101.112 109.398 100.931 108.747 100.568C108.097 100.205 107.585 99.688 107.211 99.016C106.849 98.3333 106.667 97.5333 106.667 96.616C106.667 95.6987 106.849 94.8987 107.211 94.216C107.585 93.5333 108.097 93.0107 108.747 92.648C109.398 92.2853 110.145 92.104 110.987 92.104C111.841 92.104 112.582 92.2853 113.211 92.648C113.851 93.0107 114.337 93.496 114.667 94.104C115.009 94.712 115.179 95.384 115.179 96.12ZM113.707 96.216C113.739 95.5653 113.633 95.0213 113.387 94.584C113.142 94.1467 112.806 93.8213 112.379 93.608C111.953 93.3947 111.489 93.288 110.987 93.288C110.187 93.288 109.515 93.5387 108.971 94.04C108.427 94.5307 108.134 95.256 108.091 96.216H113.707ZM122.218 92.104C123.06 92.104 123.812 92.2853 124.474 92.648C125.146 93.0107 125.668 93.5333 126.042 94.216C126.426 94.8987 126.618 95.6987 126.618 96.616C126.618 97.5333 126.426 98.3333 126.042 99.016C125.668 99.688 125.146 100.205 124.474 100.568C123.812 100.931 123.06 101.112 122.218 101.112C121.375 101.112 120.618 100.931 119.946 100.568C119.284 100.205 118.762 99.688 118.378 99.016C117.994 98.3333 117.802 97.5333 117.802 96.616C117.802 95.6987 117.994 94.8987 118.378 94.216C118.762 93.5333 119.284 93.0107 119.946 92.648C120.618 92.2853 121.375 92.104 122.218 92.104ZM122.218 93.384C121.695 93.384 121.21 93.5013 120.762 93.736C120.324 93.9707 119.967 94.3333 119.69 94.824C119.423 95.304 119.29 95.9013 119.29 96.616C119.29 97.32 119.423 97.9173 119.69 98.408C119.967 98.888 120.324 99.2453 120.762 99.48C121.21 99.7147 121.695 99.832 122.218 99.832C122.74 99.832 123.22 99.7147 123.658 99.48C124.106 99.2453 124.463 98.888 124.73 98.408C125.007 97.9173 125.146 97.32 125.146 96.616C125.146 95.9013 125.007 95.304 124.73 94.824C124.463 94.3333 124.106 93.9707 123.658 93.736C123.22 93.5013 122.74 93.384 122.218 93.384ZM134.513 92.104C135.292 92.104 135.985 92.2853 136.593 92.648C137.201 93.0107 137.676 93.5333 138.017 94.216C138.369 94.8987 138.545 95.6987 138.545 96.616C138.545 97.5333 138.369 98.3333 138.017 99.016C137.676 99.688 137.201 100.205 136.593 100.568C135.985 100.931 135.292 101.112 134.513 101.112C133.66 101.112 132.934 100.899 132.337 100.472C131.75 100.035 131.345 99.464 131.121 98.76V105.16H129.665V92.216H131.121V94.456C131.345 93.752 131.75 93.1867 132.337 92.76C132.934 92.3227 133.66 92.104 134.513 92.104ZM134.097 93.4C133.532 93.4 133.02 93.5333 132.561 93.8C132.102 94.056 131.745 94.4293 131.489 94.92C131.233 95.4107 131.105 95.976 131.105 96.616C131.105 97.256 131.233 97.8213 131.489 98.312C131.745 98.792 132.102 99.1653 132.561 99.432C133.02 99.6987 133.532 99.832 134.097 99.832C135.004 99.832 135.724 99.5493 136.257 98.984C136.801 98.408 137.073 97.6187 137.073 96.616C137.073 95.6133 136.801 94.8293 136.257 94.264C135.724 93.688 135.004 93.4 134.097 93.4ZM143.052 89.16V101H141.596V89.16H143.052ZM154.623 96.12C154.623 96.4293 154.602 96.696 154.559 96.92H147.535C147.567 97.9227 147.85 98.6747 148.383 99.176C148.927 99.6773 149.588 99.928 150.367 99.928C151.071 99.928 151.658 99.752 152.127 99.4C152.607 99.0373 152.9 98.5573 153.007 97.96H154.559C154.452 98.568 154.212 99.112 153.839 99.592C153.476 100.072 153.002 100.445 152.415 100.712C151.828 100.979 151.167 101.112 150.431 101.112C149.588 101.112 148.842 100.931 148.191 100.568C147.54 100.205 147.028 99.688 146.655 99.016C146.292 98.3333 146.111 97.5333 146.111 96.616C146.111 95.6987 146.292 94.8987 146.655 94.216C147.028 93.5333 147.54 93.0107 148.191 92.648C148.842 92.2853 149.588 92.104 150.431 92.104C151.284 92.104 152.026 92.2853 152.655 92.648C153.295 93.0107 153.78 93.496 154.111 94.104C154.452 94.712 154.623 95.384 154.623 96.12ZM153.151 96.216C153.183 95.5653 153.076 95.0213 152.831 94.584C152.586 94.1467 152.25 93.8213 151.823 93.608C151.396 93.3947 150.932 93.288 150.431 93.288C149.631 93.288 148.959 93.5387 148.415 94.04C147.871 94.5307 147.578 95.256 147.535 96.216H153.151Z" fill="#323232"/>
<path d="M103.072 38.688V40.864H100V50H97.248V40.864H94.208V38.688H103.072ZM118.081 41.072L115.793 50H112.737L111.121 44.016L109.489 50H106.433L104.145 41.072H106.881L108.065 47.504L109.729 41.072H112.641L114.353 47.52L115.537 41.072H118.081ZM128.352 45.296C128.352 45.52 128.325 45.7653 128.272 46.032H122.08C122.112 46.704 122.283 47.1893 122.592 47.488C122.901 47.776 123.296 47.92 123.776 47.92C124.181 47.92 124.517 47.8187 124.784 47.616C125.051 47.4133 125.227 47.152 125.312 46.832H128.208C128.091 47.4613 127.835 48.0267 127.44 48.528C127.045 49.0187 126.544 49.408 125.936 49.696C125.328 49.9733 124.651 50.112 123.904 50.112C123.029 50.112 122.251 49.9307 121.568 49.568C120.896 49.1947 120.368 48.6613 119.984 47.968C119.6 47.2747 119.408 46.464 119.408 45.536C119.408 44.5973 119.595 43.7867 119.968 43.104C120.352 42.4107 120.885 41.8827 121.568 41.52C122.251 41.1467 123.029 40.96 123.904 40.96C124.789 40.96 125.568 41.1413 126.24 41.504C126.912 41.8667 127.429 42.3787 127.792 43.04C128.165 43.6907 128.352 44.4427 128.352 45.296ZM125.584 44.88C125.595 44.2933 125.435 43.856 125.104 43.568C124.784 43.2693 124.384 43.12 123.904 43.12C123.403 43.12 122.987 43.2693 122.656 43.568C122.325 43.8667 122.139 44.304 122.096 44.88H125.584ZM133.314 38.16V50H130.578V38.16H133.314ZM140.131 47.328L142.067 41.072H144.979L141.811 50H138.419L135.251 41.072H138.163L140.131 47.328ZM155.393 45.296C155.393 45.52 155.366 45.7653 155.313 46.032H149.121C149.153 46.704 149.323 47.1893 149.633 47.488C149.942 47.776 150.337 47.92 150.817 47.92C151.222 47.92 151.558 47.8187 151.825 47.616C152.091 47.4133 152.267 47.152 152.353 46.832H155.249C155.131 47.4613 154.875 48.0267 154.481 48.528C154.086 49.0187 153.585 49.408 152.977 49.696C152.369 49.9733 151.691 50.112 150.945 50.112C150.07 50.112 149.291 49.9307 148.609 49.568C147.937 49.1947 147.409 48.6613 147.025 47.968C146.641 47.2747 146.449 46.464 146.449 45.536C146.449 44.5973 146.635 43.7867 147.009 43.104C147.393 42.4107 147.926 41.8827 148.609 41.52C149.291 41.1467 150.07 40.96 150.945 40.96C151.83 40.96 152.609 41.1413 153.281 41.504C153.953 41.8667 154.47 42.3787 154.833 43.04C155.206 43.6907 155.393 44.4427 155.393 45.296ZM152.625 44.88C152.635 44.2933 152.475 43.856 152.145 43.568C151.825 43.2693 151.425 43.12 150.945 43.12C150.443 43.12 150.027 43.2693 149.697 43.568C149.366 43.8667 149.179 44.304 149.137 44.88H152.625ZM176.998 38.688L174.294 50H170.902L169.094 42.432L167.27 50H163.878L161.174 38.688H164.15L165.606 46.88L167.59 38.688H170.582L172.566 46.88L174.038 38.688H176.998ZM187.715 45.296C187.715 45.52 187.688 45.7653 187.635 46.032H181.443C181.475 46.704 181.645 47.1893 181.955 47.488C182.264 47.776 182.659 47.92 183.139 47.92C183.544 47.92 183.88 47.8187 184.147 47.616C184.413 47.4133 184.589 47.152 184.675 46.832H187.571C187.453 47.4613 187.197 48.0267 186.803 48.528C186.408 49.0187 185.907 49.408 185.299 49.696C184.691 49.9733 184.013 50.112 183.267 50.112C182.392 50.112 181.613 49.9307 180.931 49.568C180.259 49.1947 179.731 48.6613 179.347 47.968C178.963 47.2747 178.771 46.464 178.771 45.536C178.771 44.5973 178.957 43.7867 179.331 43.104C179.715 42.4107 180.248 41.8827 180.931 41.52C181.613 41.1467 182.392 40.96 183.267 40.96C184.152 40.96 184.931 41.1413 185.603 41.504C186.275 41.8667 186.792 42.3787 187.155 43.04C187.528 43.6907 187.715 44.4427 187.715 45.296ZM184.947 44.88C184.957 44.2933 184.797 43.856 184.467 43.568C184.147 43.2693 183.747 43.12 183.267 43.12C182.765 43.12 182.349 43.2693 182.019 43.568C181.688 43.8667 181.501 44.304 181.459 44.88H184.947ZM193.189 40.96C194.32 40.96 195.221 41.2427 195.893 41.808C196.576 42.3733 197.002 43.12 197.173 44.048H194.613C194.538 43.6853 194.368 43.4027 194.101 43.2C193.845 42.9867 193.52 42.88 193.125 42.88C192.816 42.88 192.581 42.9493 192.421 43.088C192.261 43.216 192.181 43.4027 192.181 43.648C192.181 43.9253 192.325 44.1333 192.613 44.272C192.912 44.4107 193.376 44.5493 194.005 44.688C194.688 44.848 195.248 45.0133 195.685 45.184C196.122 45.344 196.501 45.6107 196.821 45.984C197.141 46.3573 197.301 46.8587 197.301 47.488C197.301 48 197.162 48.4533 196.885 48.848C196.608 49.2427 196.208 49.552 195.685 49.776C195.162 50 194.544 50.112 193.829 50.112C192.624 50.112 191.658 49.8453 190.933 49.312C190.208 48.7787 189.765 48.016 189.605 47.024H192.245C192.288 47.408 192.448 47.7013 192.725 47.904C193.013 48.1067 193.381 48.208 193.829 48.208C194.138 48.208 194.373 48.1387 194.533 48C194.693 47.8507 194.773 47.6587 194.773 47.424C194.773 47.1147 194.624 46.896 194.325 46.768C194.037 46.6293 193.562 46.4853 192.901 46.336C192.24 46.1973 191.696 46.048 191.269 45.888C190.842 45.728 190.474 45.472 190.165 45.12C189.856 44.7573 189.701 44.2667 189.701 43.648C189.701 42.848 190.005 42.2027 190.613 41.712C191.221 41.2107 192.08 40.96 193.189 40.96ZM204.672 47.648V50H203.44C202.395 50 201.579 49.744 200.992 49.232C200.416 48.7093 200.128 47.8507 200.128 46.656V43.376H198.928V41.072H200.128V38.88H202.864V41.072H204.656V43.376H202.864V46.704C202.864 47.056 202.933 47.3013 203.072 47.44C203.221 47.5787 203.467 47.648 203.808 47.648H204.672ZM213.749 47.904H217.397V50H211.013V38.688H213.749V47.904ZM222.845 40.96C223.528 40.96 224.115 41.1147 224.605 41.424C225.096 41.7333 225.459 42.1547 225.693 42.688V41.072H228.413V50H225.693V48.384C225.459 48.9173 225.096 49.3387 224.605 49.648C224.115 49.9573 223.528 50.112 222.845 50.112C222.109 50.112 221.448 49.9307 220.861 49.568C220.285 49.1947 219.827 48.6613 219.485 47.968C219.155 47.2747 218.989 46.464 218.989 45.536C218.989 44.5973 219.155 43.7867 219.485 43.104C219.827 42.4107 220.285 41.8827 220.861 41.52C221.448 41.1467 222.109 40.96 222.845 40.96ZM223.725 43.36C223.139 43.36 222.664 43.552 222.301 43.936C221.949 44.32 221.773 44.8533 221.773 45.536C221.773 46.2187 221.949 46.752 222.301 47.136C222.664 47.52 223.139 47.712 223.725 47.712C224.301 47.712 224.771 47.5147 225.133 47.12C225.507 46.7253 225.693 46.1973 225.693 45.536C225.693 44.864 225.507 44.336 225.133 43.952C224.771 43.5573 224.301 43.36 223.725 43.36ZM236.505 50L233.833 46.208V50H231.097V38.16H233.833V44.656L236.505 41.072H239.721L236.121 45.536L239.801 50H236.505ZM250.08 45.296C250.08 45.52 250.054 45.7653 250 46.032H243.808C243.84 46.704 244.011 47.1893 244.32 47.488C244.63 47.776 245.024 47.92 245.504 47.92C245.91 47.92 246.246 47.8187 246.512 47.616C246.779 47.4133 246.955 47.152 247.04 46.832H249.936C249.819 47.4613 249.563 48.0267 249.168 48.528C248.774 49.0187 248.272 49.408 247.664 49.696C247.056 49.9733 246.379 50.112 245.632 50.112C244.758 50.112 243.979 49.9307 243.296 49.568C242.624 49.1947 242.096 48.6613 241.712 47.968C241.328 47.2747 241.136 46.464 241.136 45.536C241.136 44.5973 241.323 43.7867 241.696 43.104C242.08 42.4107 242.614 41.8827 243.296 41.52C243.979 41.1467 244.758 40.96 245.632 40.96C246.518 40.96 247.296 41.1413 247.968 41.504C248.64 41.8667 249.158 42.3787 249.52 43.04C249.894 43.6907 250.08 44.4427 250.08 45.296ZM247.312 44.88C247.323 44.2933 247.163 43.856 246.832 43.568C246.512 43.2693 246.112 43.12 245.632 43.12C245.131 43.12 244.715 43.2693 244.384 43.568C244.054 43.8667 243.867 44.304 243.824 44.88H247.312Z" fill="#323232"/>
<circle cx="51.5" cy="70.5" r="22.5" fill="#58BEBF" fill-opacity="0.2"/>
<path fill-rule="evenodd" clip-rule="evenodd" d="M48.6024 80.7964V76.5415H54.875V80.7964H59.6021V57.8781H43.8746V80.7964H48.6024ZM54.875 59.9835H57.5206V62.6584H54.875V59.9835ZM57.5206 63.8722H54.875V66.5479H57.5206V63.8722ZM54.875 67.7616H57.5206V70.4359H54.875V67.7616ZM57.5206 71.6496H54.875V74.3261H57.5206V71.6496ZM50.4163 59.9835H53.0626V62.6584H50.4163V59.9835ZM53.0626 63.8722H50.4163V66.5479H53.0626V63.8722ZM50.4163 67.7616H53.0626V70.4359H50.4163V67.7616ZM53.0626 71.6496H50.4163V74.3261H53.0626V71.6496ZM45.9576 59.9835H48.6032V62.6584H45.9576V59.9835ZM48.6032 63.8722H45.9576V66.5479H48.6032V63.8722ZM45.9576 67.7616H48.6032V70.4359H45.9576V67.7616ZM48.6032 71.6496H45.9576V74.3261H48.6032V71.6496Z" fill="#58BEBF"/>
</g>
<defs>
<filter id="filter0_d_2_194" x="-36" y="-20" width="380" height="221" filterUnits="userSpaceOnUse" color-interpolation-filters="sRGB">
<feFlood flood-opacity="0" result="BackgroundImageFix"/>
<feColorMatrix in="SourceAlpha" type="matrix" values="0 0 0 0 0 0 0 0 0 0 0 0 0 0 0 0 0 0 127 0" result="hardAlpha"/>
<feMorphology radius="2" operator="erode" in="SourceAlpha" result="effect1_dropShadow_2_194"/>
<feOffset dx="4" dy="20"/>
<feGaussianBlur stdDeviation="21"/>
<feColorMatrix type="matrix" values="0 0 0 0 0 0 0 0 0 0 0 0 0 0 0 0 0 0 0.12 0"/>
<feBlend mode="normal" in2="BackgroundImageFix" result="effect1_dropShadow_2_194"/>
<feBlend mode="normal" in="SourceGraphic" in2="effect1_dropShadow_2_194" result="shape"/>
</filter>
<clipPath id="clip0_2_194">
<rect width="300" height="141" fill="white"/>
</clipPath>
</defs>
</svg>
